<svg width="218" height="87" viewBox="0 0 218 87" fill="none" xmlns="http://www.w3.org/2000/svg">
<path d="M180.999 68.142H169.031V70.452C169.779 70.4667 170.901 70.474 172.397 70.474C174.978 70.474 177.603 70.43 180.273 70.342V74.654C177.603 74.5513 174.787 74.5 171.825 74.5C170.593 74.5 169.661 74.5073 169.031 74.522V80H163.839C163.956 77.1547 164.015 74.4927 164.015 72.014C164.015 69.5353 163.956 66.8733 163.839 64.028H180.999V68.142ZM192.346 71.816L198.77 80H192.412L189.244 75.688L186.054 80H179.696L186.12 71.816L179.916 64.028H186.274L189.244 67.988L192.192 64.028H198.55L192.346 71.816Z" fill="#F209EE"/>
<path d="M176.388 51.7029C176.443 51.5377 176.873 51.389 177.678 51.2568C178.51 51.129 179.534 50.9883 180.748 50.8347C181.967 50.6527 183.319 50.4487 184.806 50.2227C186.297 49.9684 187.741 49.6484 189.137 49.2628C190.562 48.8818 191.854 48.4215 193.014 47.882C194.178 47.3142 195.071 46.6304 195.692 45.8306C195.765 45.378 195.51 44.9746 194.929 44.6204C194.347 44.2661 193.561 43.9226 192.57 43.5898C191.579 43.257 190.442 42.9298 189.159 42.6083C187.876 42.2867 186.557 41.9159 185.203 41.4959C183.877 41.0805 182.588 40.613 181.337 40.0934C180.086 39.5739 178.994 38.9638 178.062 38.2633C177.134 37.5345 176.425 36.7101 175.934 35.7902C175.448 34.842 175.304 33.7456 175.503 32.501C175.698 31.2848 176.164 30.0974 176.901 28.9389C177.67 27.7567 178.603 26.6441 179.698 25.6011C180.794 24.5581 182.005 23.6062 183.332 22.7454C184.688 21.8891 186.066 21.1669 187.465 20.5788C188.865 19.9907 190.223 19.57 191.54 19.3168C192.857 19.0636 194.053 19.023 195.128 19.1952C195.411 19.2405 195.708 19.2881 196.019 19.3379C196.335 19.3595 196.601 19.4167 196.819 19.5095C197.064 19.6068 197.242 19.7658 197.351 19.9865C197.494 20.1834 197.536 20.4657 197.477 20.8334C197.332 21.7385 196.931 22.3415 196.273 22.6423C195.616 22.9432 194.863 23.0257 194.014 22.8897L192.285 22.0035C191.578 21.8903 190.738 21.9733 189.765 22.2526C188.824 22.5081 187.845 22.917 186.827 23.4791C185.813 24.013 184.795 24.6623 183.773 25.427C182.784 26.1679 181.873 26.9648 181.04 27.8178C180.24 28.647 179.551 29.5085 178.973 30.4022C178.427 31.2722 178.093 32.0891 177.971 32.8528C177.817 33.8145 178.001 34.6563 178.524 35.3782C179.051 36.0719 179.794 36.6841 180.754 37.2149C181.713 37.7457 182.827 38.2144 184.097 38.6208C185.399 39.0034 186.718 39.3742 188.053 39.7331C189.388 40.092 190.692 40.4605 191.966 40.8386C193.268 41.2212 194.404 41.6497 195.372 42.1239C196.345 42.5699 197.1 43.1114 197.636 43.7485C198.177 44.3573 198.377 45.1001 198.236 45.977C198.1 46.8255 197.625 47.6197 196.81 48.3596C195.996 49.0994 194.973 49.7769 193.743 50.3922C192.518 50.9792 191.129 51.4966 189.578 51.9444C188.06 52.3685 186.541 52.7054 185.021 52.9552C183.506 53.1767 182.035 53.3037 180.608 53.3363C179.21 53.3734 178.018 53.2985 177.032 53.1116C176.75 53.0663 176.525 52.9288 176.359 52.6991C176.192 52.4694 176.202 52.1373 176.388 51.7029Z" fill="#6227D8"/>
<path d="M195.603 16.233L195.128 19.1952C194.053 19.023 192.857 19.0636 191.54 19.3168C190.223 19.57 188.865 19.9907 187.465 20.5788C186.066 21.1669 184.688 21.8891 183.332 22.7454C182.005 23.6062 180.794 24.5581 179.698 25.6011C178.603 26.6441 177.67 27.7567 176.901 28.9389C176.164 30.0974 175.698 31.2848 175.503 32.501C175.304 33.7456 175.448 34.842 175.934 35.7902C176.425 36.7101 177.134 37.5345 178.062 38.2633C178.994 38.9638 180.086 39.5739 181.337 40.0934C182.588 40.613 183.877 41.0805 185.203 41.4959C186.557 41.9159 187.876 42.2867 189.159 42.6083C190.442 42.9298 191.579 43.257 192.57 43.5898C193.561 43.9226 194.347 44.2661 194.929 44.6204C195.51 44.9746 195.765 45.378 195.692 45.8306C195.071 46.6304 194.178 47.3142 193.014 47.882C191.854 48.4215 190.562 48.8818 189.137 49.2628C187.741 49.6484 186.297 49.9684 184.806 50.2227C183.319 50.4487 181.967 50.6527 180.748 50.8347C179.534 50.9883 178.51 51.129 177.678 51.2568C176.873 51.389 176.443 51.5377 176.388 51.7029C176.202 52.1373 176.192 52.4694 176.359 52.6991C176.525 52.9288 176.75 53.0663 177.032 53.1116C178.018 53.2985 179.21 53.3734 180.608 53.3363C182.035 53.3037 183.506 53.1767 185.021 52.9552C186.541 52.7054 188.06 52.3685 189.578 51.9444C191.129 51.4966 192.518 50.9792 193.743 50.3922C194.973 49.7769 195.996 49.0994 196.81 48.3596C197.625 47.6197 198.1 46.8255 198.236 45.977C198.377 45.1001 198.177 44.3573 197.636 43.7485C197.1 43.1114 196.345 42.5699 195.372 42.1239C194.404 41.6497 193.268 41.2212 191.966 40.8386C190.692 40.4605 189.388 40.092 188.053 39.7331C186.718 39.3742 185.399 39.0034 184.097 38.6208C182.827 38.2144 181.713 37.7457 180.754 37.2149C179.794 36.6841 179.051 36.0719 178.524 35.3782C178.001 34.6563 177.817 33.8145 177.971 32.8528C178.093 32.0891 178.427 31.2722 178.973 30.4022C179.551 29.5085 180.24 28.647 181.04 27.8178C181.873 26.9648 182.784 26.1679 183.773 25.427C184.795 24.6623 185.813 24.013 186.827 23.4791C187.845 22.917 188.824 22.5081 189.765 22.2526C190.738 21.9733 191.578 21.8903 192.285 22.0035L194.014 22.8897C194.863 23.0257 195.616 22.9432 196.273 22.6423C196.931 22.3415 197.332 21.7385 197.477 20.8334C197.536 20.4657 197.494 20.1834 197.351 19.9865C197.242 19.7658 197.064 19.6068 196.819 19.5095C196.601 19.4167 196.335 19.3595 196.019 19.3379L195.128 19.1952L195.603 16.233L196.434 16.3661C196.902 16.413 197.413 16.5148 197.923 16.7223L197.924 16.7205C197.945 16.729 197.967 16.7387 197.988 16.7475C197.991 16.7488 197.994 16.7497 197.997 16.751L197.996 16.7518C198.773 17.0766 199.456 17.6372 199.913 18.4247C200.582 19.4833 200.551 20.6075 200.439 21.3078C200.183 22.9041 199.336 24.5399 197.522 25.3702C196.231 25.9609 194.861 26.0636 193.54 25.852L193.07 25.7768L191.483 24.9627C191.279 24.978 190.988 25.023 190.592 25.1366L190.551 25.1478C189.881 25.3299 189.124 25.6377 188.276 26.1057L188.25 26.1193L188.224 26.134C187.365 26.5862 186.48 27.1466 185.572 27.8265L185.572 27.8277C184.702 28.4794 183.908 29.1756 183.187 29.9142C182.521 30.6064 181.961 31.3077 181.501 32.0168C181.113 32.6403 180.974 33.0711 180.933 33.3272C180.908 33.4853 180.922 33.5546 180.924 33.5641C180.925 33.5709 180.927 33.5747 180.929 33.5787C180.93 33.5814 180.934 33.5878 180.94 33.5984C181.163 33.8797 181.548 34.2264 182.206 34.5903C182.956 35.0054 183.876 35.3977 184.985 35.7545C186.251 36.126 187.533 36.4873 188.831 36.8363C190.19 37.2017 191.52 37.577 192.819 37.9627C194.242 38.3811 195.54 38.8654 196.692 39.4296C197.905 39.9946 199.011 40.7476 199.878 41.7557C199.895 41.7757 199.914 41.7966 199.931 41.8167C201.088 43.1543 201.463 44.8023 201.199 46.4515C200.928 48.142 200.003 49.5132 198.827 50.5805C197.767 51.5434 196.502 52.3662 195.086 53.0749L195.062 53.0869L195.04 53.0981C193.64 53.7686 192.092 54.3416 190.41 54.8271L190.398 54.8301L190.385 54.834C188.764 55.2868 187.137 55.6471 185.507 55.915L185.482 55.9198L185.455 55.9235C183.832 56.161 182.241 56.2978 180.687 56.3337L180.688 56.3348C179.186 56.3746 177.797 56.2995 176.558 56.0729C176.555 56.0725 176.552 56.072 176.549 56.0715C176.524 56.0669 176.498 56.0641 176.473 56.0593L176.474 56.0574C175.515 55.8836 174.665 55.3866 174.051 54.6201L173.929 54.458C172.874 53.0002 173.267 51.4393 173.579 50.6507C173.924 49.7254 174.594 49.2412 174.87 49.0625C175.215 48.8398 175.55 48.7087 175.771 48.6321C176.225 48.4749 176.731 48.3726 177.191 48.2969L177.207 48.2934L178.662 48.0834C179.176 48.0126 179.735 47.9391 180.336 47.8629C181.537 47.6835 182.87 47.4815 184.333 47.2591C185.718 47.0218 187.053 46.7256 188.339 46.3706L188.35 46.3675L188.362 46.3645L188.835 46.2336C189.197 46.1293 189.545 46.0179 189.881 45.9036C189.698 45.8521 189.51 45.7997 189.317 45.7481L188.43 45.5178C187.424 45.2659 186.401 44.986 185.361 44.6782L184.315 44.3613L184.306 44.3589C183.249 44.0277 182.212 43.6642 181.196 43.2693L180.187 42.8644C178.921 42.3387 177.753 41.7148 176.703 40.982L176.259 40.6618L176.208 40.622C175.072 39.7294 174.124 38.6762 173.424 37.4503L173.288 37.2029L173.275 37.1812L173.265 37.1597C172.437 35.5454 172.26 33.7825 172.541 32.0265C172.808 30.3624 173.439 28.7929 174.37 27.3289L174.378 27.3153L174.387 27.302C175.292 25.911 176.377 24.6202 177.629 23.4281C178.865 22.2513 180.224 21.1852 181.7 20.228L181.716 20.2186L181.73 20.209C183.218 19.2692 184.742 18.469 186.303 17.8133C187.87 17.155 189.428 16.668 190.974 16.3708C192.557 16.0663 194.113 15.9943 195.603 16.233Z" fill="#6227D8"/>
<path d="M150.387 60.0625L136.575 28.625C136.241 28.125 136.158 27.625 136.325 27.125C136.491 26.5833 136.783 26.1667 137.2 25.875C137.616 25.5833 138.095 25.4792 138.637 25.5625C139.22 25.6042 139.741 25.9375 140.2 26.5625L151.7 54.0625L157.137 23C157.387 22.875 157.679 22.7708 158.012 22.6875C158.387 22.6042 158.741 22.5833 159.075 22.625C159.45 22.6667 159.783 22.7917 160.075 23C160.366 23.2083 160.554 23.5417 160.637 24C160.429 25.6667 160.116 27.7917 159.7 30.375C159.283 32.9583 158.825 35.625 158.325 38.375C157.825 41.0833 157.325 43.6875 156.825 46.1875C156.366 48.6458 156.012 50.6042 155.762 52.0625C155.595 52.9375 155.387 54.125 155.137 55.625C154.887 57.0833 154.595 58.6875 154.262 60.4375C153.97 62.1875 153.637 64 153.262 65.875C152.929 67.7917 152.595 69.625 152.262 71.375C151.97 73.125 151.658 74.7083 151.325 76.125C151.033 77.5833 150.783 78.75 150.575 79.625C150.491 80.125 150.241 80.5 149.825 80.75C149.408 81 148.95 81.1042 148.45 81.0625C147.95 81.0208 147.47 80.8542 147.012 80.5625C146.595 80.2708 146.366 79.8542 146.325 79.3125L150.387 60.0625Z" fill="#6227D8"/>
<path d="M102.735 78.5C103.11 73.3333 103.38 69.0417 103.547 65.625C103.714 62.2083 103.818 59.2917 103.86 56.875C103.943 54.4167 103.964 52.25 103.922 50.375C103.88 48.5 103.818 46.5208 103.735 44.4375C103.651 42.3125 103.547 39.8958 103.422 37.1875C103.339 34.4375 103.255 30.9792 103.172 26.8125C103.255 26.3542 103.422 25.9583 103.672 25.625C103.922 25.25 104.193 25 104.485 24.875C104.818 24.7083 105.172 24.7083 105.547 24.875C105.922 25.0417 106.297 25.4167 106.672 26L106.485 34.125C107.901 32.2917 109.485 30.625 111.235 29.125C113.026 27.625 114.818 26.3958 116.61 25.4375C118.443 24.4375 120.214 23.75 121.922 23.375C123.63 22.9583 125.11 22.9167 126.36 23.25C127.651 23.5833 128.63 24.3333 129.297 25.5C130.005 26.625 130.255 28.2292 130.047 30.3125C129.88 32.1458 129.318 34.125 128.36 36.25C127.401 38.3333 126.214 40.4167 124.797 42.5C123.422 44.5417 121.901 46.5208 120.235 48.4375C118.568 50.3542 116.943 52.0417 115.36 53.5C113.776 54.9583 112.297 56.1458 110.922 57.0625C109.589 57.9375 108.526 58.375 107.735 58.375C107.693 58.9583 107.63 59.7708 107.547 60.8125C107.464 61.8958 107.38 63.1042 107.297 64.4375C107.214 65.8125 107.11 67.2292 106.985 68.6875C106.901 70.1458 106.818 71.5417 106.735 72.875C106.651 74.2083 106.568 75.4167 106.485 76.5C106.401 77.5833 106.36 78.3958 106.36 78.9375C106.151 79.1458 105.901 79.3333 105.61 79.5C105.318 79.6667 105.005 79.7708 104.672 79.8125C104.339 79.8542 104.005 79.7708 103.672 79.5625C103.339 79.3958 103.026 79.0417 102.735 78.5ZM107.422 54.8125C108.797 54.2708 110.443 53.1875 112.36 51.5625C114.276 49.8958 116.172 47.9167 118.047 45.625C119.964 43.2917 121.693 40.75 123.235 38C124.776 35.25 125.86 32.5208 126.485 29.8125C126.235 28.4792 125.672 27.6042 124.797 27.1875C123.922 26.7708 122.88 26.6875 121.672 26.9375C120.505 27.1458 119.214 27.6667 117.797 28.5C116.38 29.2917 115.005 30.25 113.672 31.375C112.38 32.4583 111.172 33.6667 110.047 35C108.922 36.3333 108.047 37.6458 107.422 38.9375V54.8125Z" fill="#6227D8"/>
<path d="M68.1146 78.5C68.4896 73.3333 68.7604 69.0417 68.9271 65.625C69.0938 62.2083 69.1979 59.2917 69.2396 56.875C69.3229 54.4167 69.3438 52.25 69.3021 50.375C69.2604 48.5 69.1979 46.5208 69.1146 44.4375C69.0313 42.3125 68.9271 39.8958 68.8021 37.1875C68.7188 34.4375 68.6354 30.9792 68.5521 26.8125C68.6354 26.3542 68.8021 25.9583 69.0521 25.625C69.3021 25.25 69.5729 25 69.8646 24.875C70.1979 24.7083 70.5521 24.7083 70.9271 24.875C71.3021 25.0417 71.6771 25.4167 72.0521 26L71.8646 34.125C73.2813 32.2917 74.8646 30.625 76.6146 29.125C78.4063 27.625 80.1979 26.3958 81.9896 25.4375C83.8229 24.4375 85.5938 23.75 87.3021 23.375C89.0104 22.9583 90.4896 22.9167 91.7396 23.25C93.0313 23.5833 94.0104 24.3333 94.6771 25.5C95.3854 26.625 95.6354 28.2292 95.4271 30.3125C95.2604 32.1458 94.6979 34.125 93.7396 36.25C92.7813 38.3333 91.5938 40.4167 90.1771 42.5C88.8021 44.5417 87.2813 46.5208 85.6146 48.4375C83.9479 50.3542 82.3229 52.0417 80.7396 53.5C79.1563 54.9583 77.6771 56.1458 76.3021 57.0625C74.9688 57.9375 73.9063 58.375 73.1146 58.375C73.0729 58.9583 73.0104 59.7708 72.9271 60.8125C72.8438 61.8958 72.7604 63.1042 72.6771 64.4375C72.5938 65.8125 72.4896 67.2292 72.3646 68.6875C72.2813 70.1458 72.1979 71.5417 72.1146 72.875C72.0313 74.2083 71.9479 75.4167 71.8646 76.5C71.7813 77.5833 71.7396 78.3958 71.7396 78.9375C71.5313 79.1458 71.2813 79.3333 70.9896 79.5C70.6979 79.6667 70.3854 79.7708 70.0521 79.8125C69.7188 79.8542 69.3854 79.7708 69.0521 79.5625C68.7188 79.3958 68.4063 79.0417 68.1146 78.5ZM72.8021 54.8125C74.1771 54.2708 75.8229 53.1875 77.7396 51.5625C79.6563 49.8958 81.5521 47.9167 83.4271 45.625C85.3438 43.2917 87.0729 40.75 88.6146 38C90.1563 35.25 91.2396 32.5208 91.8646 29.8125C91.6146 28.4792 91.0521 27.6042 90.1771 27.1875C89.3021 26.7708 88.2604 26.6875 87.0521 26.9375C85.8854 27.1458 84.5938 27.6667 83.1771 28.5C81.7604 29.2917 80.3854 30.25 79.0521 31.375C77.7604 32.4583 76.5521 33.6667 75.4271 35C74.3021 36.3333 73.4271 37.6458 72.8021 38.9375V54.8125Z" fill="#6227D8"/>
<path d="M55.9321 21.625C56.1821 21.5 56.4738 21.3958 56.8071 21.3125C57.1404 21.2292 57.4529 21.1875 57.7446 21.1875C58.0779 21.1875 58.3904 21.25 58.6821 21.375C58.9738 21.5 59.2029 21.7292 59.3696 22.0625C59.3696 24.7708 59.3904 27.7083 59.4321 30.875C59.5154 34 59.5988 37.1875 59.6821 40.4375C59.8071 43.6458 59.9113 46.8125 59.9946 49.9375C60.0779 53.0625 60.1613 55.9583 60.2446 58.625C60.2863 59.25 60.1196 59.7292 59.7446 60.0625C59.3696 60.3958 58.9529 60.5625 58.4946 60.5625C58.0779 60.5625 57.6821 60.3958 57.3071 60.0625C56.9321 59.7708 56.7446 59.2917 56.7446 58.625L55.9321 21.625ZM55.1821 8.875C55.1821 8.33334 55.3696 7.97917 55.7446 7.8125C56.1196 7.60417 56.5363 7.5 56.9946 7.5C57.9113 7.5 58.4738 7.8125 58.6821 8.4375C58.9321 9.02084 59.0571 9.70834 59.0571 10.5C58.8071 11 58.4738 11.3542 58.0571 11.5625C57.6404 11.7708 57.2029 11.8125 56.7446 11.6875C56.3279 11.5625 55.9529 11.2708 55.6196 10.8125C55.3279 10.3542 55.1821 9.70834 55.1821 8.875Z" fill="#6227D8"/>
<path d="M43.9996 30.875C43.6663 31.0833 43.0621 31.375 42.1871 31.75C41.3121 32.0833 40.2913 32.4583 39.1246 32.875C37.9996 33.2917 36.7913 33.7292 35.4996 34.1875C34.2496 34.6458 33.0413 35.1042 31.8746 35.5625C30.7496 35.9792 29.7288 36.375 28.8121 36.75C27.9371 37.0833 27.3329 37.375 26.9996 37.625C26.2496 38.1667 25.6871 38.9375 25.3121 39.9375C24.9371 40.8958 24.6663 42 24.4996 43.25C24.3329 44.4583 24.2496 45.7708 24.2496 47.1875C24.2496 48.5625 24.2913 49.9167 24.3746 51.25C24.4579 52.5833 24.5413 53.8542 24.6246 55.0625C24.7496 56.2708 24.8329 57.2917 24.8746 58.125C24.8329 58.7917 24.5829 59.3958 24.1246 59.9375C23.7079 60.4375 23.1663 60.6875 22.4996 60.6875C22.2496 60.6875 21.9579 60.625 21.6246 60.5C21.2913 60.375 21.1454 60.1458 21.1871 59.8125L20.9996 8.75C20.9996 8.16667 21.1246 7.75 21.3746 7.5C21.6246 7.20834 21.9371 7.0625 22.3121 7.0625C22.6871 7.02084 23.0829 7.08334 23.4996 7.25C23.9163 7.41667 24.2913 7.625 24.6246 7.875C24.6663 9.70834 24.6871 11.8125 24.6871 14.1875C24.6871 16.5625 24.6871 18.9583 24.6871 21.375C24.7288 23.7917 24.7913 26.125 24.8746 28.375C24.9996 30.625 25.2079 32.5417 25.4996 34.125C27.5413 33.25 29.6246 32.5208 31.7496 31.9375C33.8746 31.3125 35.7913 30.6042 37.4996 29.8125C39.2496 28.9792 40.6871 27.9375 41.8121 26.6875C42.9371 25.3958 43.5621 23.6667 43.6871 21.5C43.7704 20.375 43.8121 19.375 43.8121 18.5C43.8121 17.625 43.7704 16.75 43.6871 15.875C43.6454 15 43.5204 14.0833 43.3121 13.125C43.1454 12.125 42.9163 10.9583 42.6246 9.625C42.6246 8.79167 42.7913 8.27084 43.1246 8.0625C43.4996 7.8125 43.9579 7.6875 44.4996 7.6875C45.0829 7.6875 45.5204 7.83334 45.8121 8.125C46.1454 8.41667 46.3746 8.79167 46.4996 9.25C46.6663 9.66667 46.7704 10.1458 46.8121 10.6875C46.8538 11.2292 46.8746 11.7292 46.8746 12.1875C46.9163 12.8958 46.9579 14 46.9996 15.5C47.0413 17 47.0829 18.6875 47.1246 20.5625C47.1663 22.3958 47.2079 24.3542 47.2496 26.4375C47.3329 28.5208 47.3954 30.5 47.4371 32.375C47.4788 34.2083 47.5204 35.875 47.5621 37.375C47.6038 38.875 47.6246 39.9792 47.6246 40.6875C47.6663 41.5625 47.6871 42.7292 47.6871 44.1875C47.6871 45.6458 47.6871 47.1667 47.6871 48.75C47.6871 50.3333 47.6663 51.875 47.6246 53.375C47.5829 54.8333 47.5413 56 47.4996 56.875C47.4579 57.25 47.4163 57.625 47.3746 58C47.3746 58.375 47.3121 58.7292 47.1871 59.0625C47.1038 59.3958 46.9163 59.6875 46.6246 59.9375C46.3746 60.1875 45.9788 60.375 45.4371 60.5C44.6038 59.9583 44.1454 59.3125 44.0621 58.5625C44.0204 57.8125 43.9788 57 43.9371 56.125C43.9371 55.625 43.9371 54.7292 43.9371 53.4375C43.9788 52.1042 43.9996 50.5833 43.9996 48.875C43.9996 47.1667 43.9996 45.375 43.9996 43.5C44.0413 41.5833 44.0621 39.7917 44.0621 38.125C44.0621 36.4167 44.0621 34.9167 44.0621 33.625C44.0621 32.2917 44.0413 31.375 43.9996 30.875Z" fill="#6227D8"/>
<path d="M157.361 19.7588C158.012 19.6143 158.7 19.5607 159.405 19.6436C159.412 19.6443 159.42 19.6447 159.427 19.6455C159.433 19.6463 159.44 19.6476 159.446 19.6484C160.182 19.7356 160.892 19.9722 161.54 20.373L161.818 20.5586C162.781 21.246 163.277 22.1983 163.506 23.0869L163.589 23.4629L163.671 23.916L163.614 24.3721C163.4 26.0877 163.081 28.2511 162.661 30.8525C162.241 33.4568 161.78 36.1438 161.276 38.9121L161.274 38.9199C160.772 41.6414 160.27 44.26 159.767 46.7754C159.313 49.2097 158.964 51.1392 158.719 52.5693L158.709 52.624C158.549 53.466 158.345 54.6276 158.097 56.1182L158.094 56.1318C157.843 57.5925 157.552 59.1924 157.222 60.9307L156.99 62.2803C156.752 63.6407 156.49 65.035 156.204 66.4629C155.877 68.3424 155.55 70.1443 155.222 71.8682L154.991 73.1904C154.76 74.4648 154.515 75.6554 154.256 76.7607C153.97 78.188 153.719 79.3624 153.504 80.2715C153.253 81.5312 152.528 82.6263 151.368 83.3223C150.394 83.9068 149.305 84.1438 148.2 84.0518C147.304 83.9771 146.471 83.7054 145.719 83.2832L145.401 83.0938L145.346 83.0576L145.292 83.0205C144.16 82.2279 143.521 81.0663 143.359 79.7979L143.333 79.543L143.301 79.1143L147.253 60.3867L133.906 30.0098C133.277 28.927 133.025 27.609 133.458 26.2432C133.797 25.1404 134.453 24.1353 135.479 23.417L135.688 23.2793C136.719 22.6308 137.885 22.4266 139.026 22.5879C140.555 22.753 141.692 23.6133 142.464 24.585L142.619 24.7881L142.83 25.0762L150.512 43.4453L154.442 20.9932L155.796 20.3164C156.28 20.0744 156.785 19.9021 157.284 19.7773L157.323 19.7676L157.361 19.7588ZM159.075 22.625C158.741 22.5833 158.387 22.6042 158.012 22.6875C157.679 22.7708 157.387 22.875 157.137 23L151.7 54.0625L140.2 26.5625C139.741 25.9375 139.22 25.6042 138.637 25.5625C138.095 25.4792 137.616 25.5833 137.2 25.875C136.783 26.1667 136.491 26.5833 136.325 27.125C136.158 27.625 136.241 28.125 136.575 28.625L150.387 60.0625L146.325 79.3125C146.366 79.8542 146.595 80.2708 147.012 80.5625C147.47 80.8542 147.95 81.0208 148.45 81.0625C148.95 81.1042 149.408 81 149.825 80.75C150.241 80.5 150.491 80.125 150.575 79.625C150.783 78.75 151.033 77.5833 151.325 76.125C151.658 74.7083 151.97 73.125 152.262 71.375C152.595 69.625 152.929 67.7917 153.262 65.875C153.637 64 153.97 62.1875 154.262 60.4375C154.595 58.6875 154.887 57.0833 155.137 55.625C155.387 54.125 155.595 52.9375 155.762 52.0625C156.012 50.6042 156.366 48.6458 156.825 46.1875C157.325 43.6875 157.825 41.0833 158.325 38.375C158.825 35.625 159.283 32.9583 159.7 30.375C160.116 27.7917 160.429 25.6667 160.637 24C160.554 23.5417 160.366 23.2083 160.075 23C159.783 22.7917 159.45 22.6667 159.075 22.625Z" fill="#6227D8"/>
<path d="M121.211 20.46C123.231 19.9672 125.237 19.8521 127.108 20.3457L127.109 20.3447C129.15 20.8713 130.768 22.0983 131.835 23.9014C133.047 25.827 133.269 28.2022 133.034 30.583L133.035 30.584C132.831 32.8248 132.155 35.1314 131.095 37.4834L131.09 37.4932L131.085 37.5039C130.051 39.7519 128.779 41.9793 127.278 44.1865L127.277 44.1855C125.833 46.3288 124.24 48.4029 122.498 50.4062C120.771 52.392 119.069 54.1618 117.392 55.707C115.726 57.2413 114.123 58.5339 112.586 59.5586L112.568 59.5703C111.948 59.9777 111.272 60.3747 110.564 60.6924C110.555 60.806 110.547 60.9226 110.537 61.042L110.538 61.043C110.456 62.1074 110.374 63.2988 110.291 64.6182C110.207 66.0069 110.102 67.4358 109.977 68.9033C109.894 70.3503 109.811 71.737 109.729 73.0625C109.644 74.4069 109.56 75.6301 109.476 76.7305C109.394 77.7969 109.359 78.5155 109.359 78.9375V80.1797L108.48 81.0586C108.059 81.4796 107.589 81.8237 107.098 82.1045C106.462 82.4676 105.77 82.6983 105.044 82.7891C103.982 82.9218 103.021 82.6485 102.233 82.1934C101.151 81.6163 100.493 80.6642 100.093 79.9219L99.6797 79.1533L99.7422 78.2832C100.116 73.1295 100.386 68.8628 100.551 65.4785C100.716 62.0817 100.819 59.1984 100.86 56.8232V56.7979L100.861 56.7734C100.943 54.355 100.963 52.2462 100.923 50.4414C100.902 49.5138 100.877 48.5597 100.846 47.5791L100.737 44.5576V44.5547C100.696 43.4965 100.649 42.365 100.597 41.1602L100.426 37.3262L100.424 37.3018V37.2783C100.382 35.8963 100.34 34.3379 100.298 32.6035L100.173 26.8721L100.167 26.5713L100.221 26.2754C100.368 25.4651 100.674 24.6744 101.176 23.9609L101.354 23.709C101.794 23.1148 102.421 22.4949 103.303 22.1172C104.402 21.6224 105.552 21.6581 106.557 22.0469L106.766 22.1338C107.784 22.5866 108.5 23.3737 108.996 24.0811L109.195 24.3779L109.692 25.1504L109.671 26.0693L109.659 26.5371C111.473 25.0513 113.317 23.7962 115.194 22.792C117.2 21.7 119.208 20.9075 121.211 20.46ZM126.36 23.25C125.11 22.9167 123.63 22.9583 121.922 23.375C120.214 23.75 118.443 24.4375 116.61 25.4375C114.818 26.3958 113.026 27.625 111.235 29.125C109.485 30.625 107.901 32.2917 106.485 34.125L106.672 26C106.297 25.4167 105.922 25.0417 105.547 24.875C105.172 24.7083 104.818 24.7083 104.485 24.875C104.193 25 103.922 25.25 103.672 25.625C103.422 25.9583 103.255 26.3542 103.172 26.8125C103.255 30.9792 103.339 34.4375 103.422 37.1875C103.547 39.8958 103.651 42.3125 103.735 44.4375C103.818 46.5208 103.88 48.5 103.922 50.375C103.964 52.25 103.943 54.4167 103.86 56.875C103.818 59.2917 103.714 62.2083 103.547 65.625C103.38 69.0417 103.11 73.3333 102.735 78.5C103.026 79.0417 103.339 79.3958 103.672 79.5625C104.005 79.7708 104.339 79.8542 104.672 79.8125C105.005 79.7708 105.318 79.6667 105.61 79.5C105.901 79.3333 106.151 79.1458 106.36 78.9375C106.36 78.3958 106.401 77.5833 106.485 76.5C106.568 75.4167 106.651 74.2083 106.735 72.875C106.818 71.5417 106.901 70.1458 106.985 68.6875C107.11 67.2292 107.214 65.8125 107.297 64.4375C107.38 63.1042 107.464 61.8958 107.547 60.8125C107.63 59.7708 107.693 58.9583 107.735 58.375C108.526 58.375 109.589 57.9375 110.922 57.0625C112.297 56.1458 113.776 54.9583 115.36 53.5C116.943 52.0417 118.568 50.3542 120.235 48.4375C121.901 46.5208 123.422 44.5417 124.797 42.5C126.214 40.4167 127.401 38.3333 128.36 36.25C129.318 34.125 129.88 32.1458 130.047 30.3125C130.255 28.2292 130.005 26.625 129.297 25.5C128.63 24.3333 127.651 23.5833 126.36 23.25ZM121.672 26.9375C122.88 26.6875 123.922 26.7708 124.797 27.1875C125.672 27.6042 126.235 28.4792 126.485 29.8125C125.86 32.5208 124.776 35.25 123.235 38C121.693 40.75 119.964 43.2917 118.047 45.625C116.172 47.9167 114.276 49.8958 112.36 51.5625C110.443 53.1875 108.797 54.2708 107.422 54.8125V38.9375C108.047 37.6458 108.922 36.3333 110.047 35C111.172 33.6667 112.38 32.4583 113.672 31.375C115.005 30.25 116.38 29.2917 117.797 28.5C119.214 27.6667 120.505 27.1458 121.672 26.9375ZM123.383 29.8506C123.197 29.7959 122.861 29.755 122.28 29.875L122.24 29.8838L122.199 29.8906C121.49 30.0173 120.538 30.3685 119.318 31.0859L119.29 31.1025L119.261 31.1191C118.023 31.8108 116.804 32.6573 115.606 33.668L115.6 33.6738C114.444 34.6427 113.358 35.7284 112.34 36.9346C111.527 37.8983 110.896 38.8116 110.422 39.6709V49.2705C112.181 47.7369 113.951 45.8941 115.726 43.7256L115.729 43.7207C117.528 41.5299 119.159 39.1357 120.618 36.5332C121.898 34.2495 122.81 32.0222 123.383 29.8506Z" fill="#6227D8"/>
<path d="M86.5908 20.46C88.611 19.9672 90.6166 19.8521 92.4883 20.3457L92.4893 20.3447C94.5716 20.8821 96.217 22.1477 97.2822 24.0117H97.2803C98.4338 25.9177 98.6442 28.2468 98.4141 30.583L98.415 30.584C98.2113 32.8248 97.5353 35.1314 96.4746 37.4834L96.4697 37.4932L96.4648 37.5039C95.4308 39.7519 94.1591 41.9793 92.6582 44.1865L92.6572 44.1855C91.2132 46.3287 89.6209 48.403 87.8789 50.4062C86.1521 52.3921 84.4502 54.1618 82.7725 55.707C81.1065 57.2415 79.5031 58.5338 77.9658 59.5586L77.9482 59.5703C77.3276 59.9776 76.6527 60.3748 75.9453 60.6924C75.9361 60.8088 75.9268 60.9283 75.917 61.0508C75.8353 62.1132 75.7532 63.302 75.6709 64.6182C75.5867 66.0069 75.4819 67.4358 75.3564 68.9033C75.2737 70.3503 75.1912 71.737 75.1084 73.0625C75.0244 74.4069 74.9401 75.6301 74.8555 76.7305C74.7734 77.7969 74.7393 78.5155 74.7393 78.9375V80.1797L73.8613 81.0586C73.4402 81.4797 72.969 81.8237 72.4775 82.1045C71.8421 82.4676 71.1501 82.6983 70.4238 82.7891C69.3587 82.9221 68.3953 82.647 67.6064 82.1895C66.6669 81.6864 66.048 80.9018 65.6406 80.2178L65.4736 79.9219L65.0596 79.1533L65.1221 78.2832C65.4961 73.1295 65.7656 68.8628 65.9307 65.4785C66.0964 62.0817 66.1993 59.1984 66.2402 56.8232V56.7979L66.2412 56.7734C66.3232 54.355 66.3428 52.2462 66.3027 50.4414C66.2821 49.5138 66.2566 48.5597 66.2256 47.5791L66.1172 44.5576V44.5547C66.0757 43.4965 66.0285 42.365 65.9766 41.1602L65.8057 37.3262L65.8047 37.3018L65.8037 37.2783C65.7618 35.8963 65.7195 34.3379 65.6777 32.6035L65.5527 26.8721L65.5469 26.5713L65.6006 26.2754C65.748 25.4651 66.0536 24.6743 66.5557 23.9609L66.7334 23.709C67.1735 23.1148 67.8013 22.4949 68.6826 22.1172C69.7814 21.6224 70.9315 21.6581 71.9365 22.0469L72.1455 22.1338C73.1643 22.5866 73.8801 23.3737 74.376 24.0811L74.5752 24.3779L75.0723 25.1504L75.0518 26.0693L75.04 26.5361C76.854 25.0507 78.6972 23.796 80.5742 22.792C82.5801 21.7 84.5875 20.9075 86.5908 20.46ZM91.7396 23.25C90.4896 22.9167 89.0104 22.9583 87.3021 23.375C85.5938 23.75 83.8229 24.4375 81.9896 25.4375C80.1979 26.3958 78.4063 27.625 76.6146 29.125C74.8646 30.625 73.2813 32.2917 71.8646 34.125L72.0521 26C71.6771 25.4167 71.3021 25.0417 70.9271 24.875C70.5521 24.7083 70.1979 24.7083 69.8646 24.875C69.5729 25 69.3021 25.25 69.0521 25.625C68.8021 25.9583 68.6354 26.3542 68.5521 26.8125C68.6354 30.9792 68.7188 34.4375 68.8021 37.1875C68.9271 39.8958 69.0313 42.3125 69.1146 44.4375C69.1979 46.5208 69.2604 48.5 69.3021 50.375C69.3438 52.25 69.3229 54.4167 69.2396 56.875C69.1979 59.2917 69.0938 62.2083 68.9271 65.625C68.7604 69.0417 68.4896 73.3333 68.1146 78.5C68.4063 79.0417 68.7188 79.3958 69.0521 79.5625C69.3854 79.7708 69.7188 79.8542 70.0521 79.8125C70.3854 79.7708 70.6979 79.6667 70.9896 79.5C71.2813 79.3333 71.5313 79.1458 71.7396 78.9375C71.7396 78.3958 71.7813 77.5833 71.8646 76.5C71.9479 75.4167 72.0313 74.2083 72.1146 72.875C72.1979 71.5417 72.2813 70.1458 72.3646 68.6875C72.4896 67.2292 72.5938 65.8125 72.6771 64.4375C72.7604 63.1042 72.8438 61.8958 72.9271 60.8125C73.0104 59.7708 73.0729 58.9583 73.1146 58.375C73.9063 58.375 74.9688 57.9375 76.3021 57.0625C77.6771 56.1458 79.1563 54.9583 80.7396 53.5C82.3229 52.0417 83.9479 50.3542 85.6146 48.4375C87.2813 46.5208 88.8021 44.5417 90.1771 42.5C91.5938 40.4167 92.7813 38.3333 93.7396 36.25C94.6979 34.125 95.2604 32.1458 95.4271 30.3125C95.6354 28.2292 95.3854 26.625 94.6771 25.5C94.0104 24.3333 93.0313 23.5833 91.7396 23.25ZM87.0521 26.9375C88.2604 26.6875 89.3021 26.7708 90.1771 27.1875C91.0521 27.6042 91.6146 28.4792 91.8646 29.8125C91.2396 32.5208 90.1563 35.25 88.6146 38C87.0729 40.75 85.3438 43.2917 83.4271 45.625C81.5521 47.9167 79.6563 49.8958 77.7396 51.5625C75.8229 53.1875 74.1771 54.2708 72.8021 54.8125V38.9375C73.4271 37.6458 74.3021 36.3333 75.4271 35C76.5521 33.6667 77.7604 32.4583 79.0521 31.375C80.3854 30.25 81.7604 29.2917 83.1771 28.5C84.5938 27.6667 85.8854 27.1458 87.0521 26.9375ZM88.7637 29.8506C88.5775 29.7957 88.2413 29.7548 87.6602 29.875L87.6201 29.8838L87.5791 29.8906C86.8697 30.0174 85.918 30.3685 84.6982 31.0859L84.6699 31.1025L84.6406 31.1191C83.403 31.8108 82.1842 32.6573 80.9863 33.668L80.9795 33.6738C79.8244 34.6427 78.7375 35.7284 77.7197 36.9346C76.9066 37.8983 76.2761 38.8116 75.8018 39.6709V49.2715C77.5614 47.7378 79.331 45.8943 81.1055 43.7256L81.1094 43.7207C82.9089 41.53 84.5391 39.1356 85.998 36.5332C87.2784 34.2494 88.1907 32.0223 88.7637 29.8506Z" fill="#6227D8"/>
<path d="M59.3696 22.0625C59.2029 21.7292 58.9738 21.5 58.6821 21.375C58.3904 21.25 58.0779 21.1875 57.7446 21.1875C57.4529 21.1875 57.1404 21.2292 56.8071 21.3125C56.4738 21.3958 56.1821 21.5 55.9321 21.625L56.7446 58.625C56.7446 59.2917 56.9321 59.7708 57.3071 60.0625C57.6821 60.3958 58.0779 60.5625 58.4946 60.5625C58.9529 60.5625 59.3696 60.3958 59.7446 60.0625C60.1196 59.7292 60.2863 59.25 60.2446 58.625C60.1613 55.9583 60.0779 53.0625 59.9946 49.9375C59.9113 46.8125 59.8071 43.6458 59.6821 40.4375C59.5988 37.1875 59.5154 34 59.4321 30.875C59.3904 27.7083 59.3696 24.7708 59.3696 22.0625ZM56.9941 4.5C57.7586 4.5 58.6843 4.62551 59.5605 5.11231C60.4858 5.62634 61.1499 6.43234 61.4951 7.39746C61.8963 8.39349 62.0566 9.44897 62.0566 10.5V11.208L61.7402 11.8418C61.2596 12.8029 60.5047 13.693 59.3984 14.2461C58.3755 14.7575 57.259 14.8818 56.1719 14.6357L55.9551 14.582L55.9189 14.5723L55.8828 14.5605C54.8215 14.2422 54.019 13.5962 53.4316 12.8848L53.1934 12.5772L53.1387 12.502L53.0889 12.4229C52.3684 11.2906 52.1816 9.99685 52.1816 8.875C52.1816 8.27939 52.2822 7.53429 52.6709 6.79981C53.0595 6.06579 53.6565 5.50246 54.373 5.14649C55.2006 4.70548 56.0928 4.50007 56.9941 4.5ZM62.3691 22.0625C62.3691 24.7539 62.3892 27.6759 62.4307 30.8291C62.5134 33.9314 62.597 37.0951 62.6797 40.3203C62.8052 43.5405 62.9095 46.7199 62.9932 49.8574C63.0764 52.9786 63.16 55.8699 63.2432 58.5312C63.304 59.8019 62.9414 61.2344 61.7373 62.3047C60.8694 63.0761 59.759 63.5625 58.4941 63.5625C57.1994 63.5624 56.1207 63.0213 55.3145 62.3047C54.0952 61.2664 53.7573 59.8321 53.7451 58.6904L52.8916 19.791L54.5908 18.9414C55.0749 18.6994 55.58 18.5271 56.0791 18.4023C56.6093 18.2698 57.1685 18.1875 57.7441 18.1875C58.3729 18.1875 59.0005 18.2922 59.6055 18.5147L59.8643 18.6172C60.9183 19.069 61.627 19.8692 62.0527 20.7207L62.3691 21.3545V22.0625ZM55.1821 8.875C55.1821 9.70834 55.3279 10.3542 55.6196 10.8125C55.9529 11.2708 56.3279 11.5625 56.7446 11.6875C57.2029 11.8125 57.6404 11.7708 58.0571 11.5625C58.4738 11.3542 58.8071 11 59.0571 10.5C59.0571 9.70834 58.9321 9.02084 58.6821 8.4375C58.4738 7.8125 57.9113 7.5 56.9946 7.5C56.5363 7.5 56.1196 7.60417 55.7446 7.8125C55.3696 7.97917 55.1821 8.33334 55.1821 8.875Z" fill="#6227D8"/>
<path d="M24.6871 14.1875C24.6871 11.8125 24.6663 9.70834 24.6246 7.875C24.2913 7.625 23.9163 7.41667 23.4996 7.25C23.0829 7.08334 22.6871 7.02084 22.3121 7.0625L22.1748 7.06934C21.8603 7.10115 21.5934 7.24481 21.3746 7.5C21.1246 7.75 20.9996 8.16667 20.9996 8.75L21.1871 59.8125C21.1454 60.1458 21.2913 60.375 21.6246 60.5C21.8746 60.5937 22.1016 60.6524 22.3047 60.6758L22.4996 60.6875C23.1663 60.6875 23.7079 60.4375 24.1246 59.9375C24.5829 59.3958 24.8329 58.7917 24.8746 58.125C24.8329 57.2917 24.7496 56.2708 24.6246 55.0625L24.3746 51.25C24.3121 50.25 24.2734 49.2383 24.2578 48.2148L24.2496 47.1875C24.2496 45.7708 24.3329 44.4583 24.4996 43.25C24.6663 42 24.9371 40.8958 25.3121 39.9375C25.6403 39.0625 26.1122 38.363 26.7275 37.8389L26.9996 37.625C27.2497 37.4375 27.6524 37.2265 28.207 36.9922L28.8121 36.75C29.2704 36.5625 29.7552 36.3698 30.2656 36.1719L31.8746 35.5625C33.0413 35.1042 34.2496 34.6458 35.4996 34.1875C36.7913 33.7292 37.9996 33.2917 39.1246 32.875C40.2913 32.4583 41.3121 32.0833 42.1871 31.75C43.0621 31.375 43.6663 31.0833 43.9996 30.875C44.0413 31.375 44.0621 32.2917 44.0621 33.625V38.125L44.0586 39.3984C44.0508 40.6953 44.0309 42.0625 43.9996 43.5V48.875L43.9961 50.1211C43.9883 51.332 43.9684 52.4375 43.9371 53.4375V56.125C43.9788 57 44.0204 57.8125 44.0621 58.5625C44.135 59.2188 44.4953 59.7952 45.1426 60.292L45.4371 60.5C45.9788 60.375 46.3746 60.1875 46.6246 59.9375C46.9163 59.6875 47.1038 59.3958 47.1871 59.0625C47.2808 58.8125 47.3398 58.5508 47.3633 58.2773L47.3746 58L47.4996 56.875C47.5204 56.4375 47.5417 55.9271 47.5625 55.3438L47.6246 53.375C47.6559 52.25 47.6758 51.1016 47.6836 49.9297L47.6871 48.75V44.1875C47.6871 42.7292 47.6663 41.5625 47.6246 40.6875C47.6246 40.3333 47.6198 39.8802 47.6094 39.3281L47.5621 37.375C47.5204 35.875 47.4788 34.2083 47.4371 32.375C47.3954 30.5 47.3329 28.5208 47.2496 26.4375C47.2079 24.3542 47.1663 22.3958 47.1246 20.5625L46.9996 15.5C46.9579 14 46.9163 12.8958 46.8746 12.1875C46.8746 11.9583 46.8698 11.7187 46.8594 11.4688L46.8121 10.6875C46.7704 10.1458 46.6663 9.66667 46.4996 9.25C46.3746 8.79167 46.1454 8.41667 45.8121 8.125C45.557 7.86986 45.1902 7.72629 44.7119 7.69434L44.4996 7.6875C43.9579 7.6875 43.4996 7.8125 43.1246 8.0625C42.7913 8.27084 42.6246 8.79167 42.6246 9.625C42.9163 10.9583 43.1454 12.125 43.3121 13.125C43.5204 14.0833 43.6454 15 43.6871 15.875C43.7704 16.75 43.8121 17.625 43.8121 18.5L43.8047 19.1797C43.7891 19.8828 43.7496 20.6563 43.6871 21.5C43.5621 23.6667 42.9371 25.3958 41.8121 26.6875L41.5977 26.9199C40.5064 28.0672 39.14 29.0313 37.4996 29.8125L36.8496 30.1055C35.3093 30.78 33.609 31.3906 31.7496 31.9375C29.6246 32.5208 27.5413 33.25 25.4996 34.125C25.2079 32.5417 24.9996 30.625 24.8746 28.375C24.7913 26.125 24.7288 23.7917 24.6871 21.375V14.1875ZM27.6875 21.375C27.7285 23.7352 27.7892 26.0131 27.8701 28.209C27.9042 28.8224 27.9451 29.4049 27.9912 29.957C28.9531 29.629 29.9233 29.3295 30.9023 29.0596C32.8969 28.4729 34.6628 27.818 36.209 27.1035C37.6466 26.4189 38.7426 25.606 39.5645 24.6982C40.1402 24.0282 40.5962 22.9948 40.6924 21.3272L40.6934 21.3027L40.6953 21.2783C40.7746 20.2073 40.8125 19.2835 40.8125 18.5C40.8125 17.9153 40.7908 17.3305 40.749 16.7451L40.6943 16.0889L40.6904 16.0176C40.6658 15.4999 40.6034 14.9484 40.499 14.3613L40.3809 13.7627L40.3652 13.6904L40.3525 13.6182C40.2354 12.9154 40.0833 12.1122 39.8945 11.2061L39.6943 10.2656L39.625 9.94922V9.625L39.6367 9.17188C39.6619 8.70375 39.7323 8.19623 39.8926 7.69531C40.1026 7.03902 40.5445 6.17064 41.4609 5.56738C41.4709 5.56072 41.4812 5.55346 41.4912 5.54688C41.5056 5.53762 41.5196 5.52768 41.5342 5.51856C42.4749 4.91451 43.5129 4.6875 44.5 4.6875C45.4985 4.68756 46.7598 4.92911 47.7881 5.86719C48.5416 6.52662 49.0477 7.35338 49.3311 8.25781C49.5653 8.87777 49.7063 9.51964 49.7764 10.1631L49.8037 10.457C49.8484 11.0377 49.8721 11.5939 49.874 12.1221C49.8941 12.4813 49.9152 12.9192 49.9346 13.4336L49.998 15.417C50.0399 16.9232 50.0823 18.6157 50.124 20.4941C50.1655 22.3201 50.2066 24.2694 50.248 26.3418C50.3315 28.4315 50.3946 30.4198 50.4365 32.3066L50.5605 37.292C50.6012 38.757 50.6229 39.8755 50.624 40.6279C50.6663 41.5594 50.6875 42.7514 50.6875 44.1875V48.75L50.6836 49.9492C50.6756 51.1414 50.6549 52.311 50.623 53.458V53.4609C50.5811 54.9274 50.5391 56.1153 50.4961 57.0176L50.4922 57.1123L50.4814 57.2061L50.3877 58.0498C50.382 58.1007 50.3758 58.1525 50.3701 58.2041C50.3512 58.7894 50.2496 59.3708 50.0576 59.9375C49.8069 60.8156 49.3151 61.5371 48.7041 62.0977C47.8969 62.8838 46.9007 63.2407 46.1113 63.4229L44.8701 63.71L43.8018 63.0156C42.4713 62.1508 41.292 60.8011 41.0801 58.8936L41.0713 58.8115L41.0664 58.7285C41.0242 57.9696 40.9824 57.1491 40.9404 56.2676L40.9375 56.1963V53.3906L40.9385 53.3438C40.9789 52.0489 41 50.5602 41 48.875V43.4346C41.0413 41.5366 41.0625 39.7669 41.0625 38.125V35.3643C40.7732 35.4691 40.4745 35.5773 40.166 35.6875C39.0266 36.1095 37.8056 36.5524 36.5029 37.0147C35.2836 37.462 34.1066 37.9086 32.9717 38.3545L32.917 38.376C31.8173 38.7833 30.8281 39.1664 29.9482 39.5264L29.8799 39.5537C29.494 39.7007 29.2082 39.8227 29.0068 39.9199C28.8511 39.9951 28.7854 40.0367 28.7793 40.04L28.7783 40.041L28.7559 40.0566C28.5555 40.2014 28.3215 40.4567 28.1211 40.9912L28.1055 41.0303C27.8352 41.7208 27.6153 42.5838 27.4736 43.6465L27.4717 43.6602C27.3265 44.713 27.25 45.8867 27.25 47.1875L27.2568 48.1689C27.2668 48.8204 27.2866 49.4663 27.3164 50.1064L27.3691 51.0625C27.451 52.3729 27.5325 53.6222 27.6143 54.8096C27.7076 55.7172 27.7801 56.5369 27.8291 57.2647L27.8711 57.9756L27.8789 58.1436L27.8691 58.3125C27.785 59.6568 27.2676 60.8592 26.4287 61.8574C25.4263 63.0603 24.0319 63.6874 22.5 63.6875C21.9546 63.6875 21.4456 63.588 20.998 63.4531L20.5713 63.3086C19.9843 63.0885 19.2516 62.6575 18.7344 61.8447C18.2673 61.1106 18.1497 60.3388 18.1875 59.6934L18 8.76074V8.75C18 7.89945 18.1568 6.58114 19.123 5.51856C19.8943 4.63437 20.9638 4.10711 22.166 4.06738C22.9299 4.01084 23.6541 4.12842 24.3135 4.35352L24.6143 4.46485C25.1763 4.6897 25.7128 4.97281 26.2129 5.32129L26.4248 5.47461L27.5908 6.34961L27.624 7.80664C27.6663 9.66816 27.6875 11.796 27.6875 14.1875V21.375Z" fill="#6227D8"/>
<path d="M178.019 12.1875C182.715 3.51255 170.351 -1.67671 170.379 8.94871C167.065 -2.07784 154.767 6.13795 163.256 13.1956C150.862 10.1439 154.686 28.8722 165.228 22.1385C162.286 25.5583 163.475 31.9243 168.553 32C173.426 31.5514 177.016 25.2927 174.636 21.1286C185.441 28.9582 190.892 12.8925 178.019 12.1875Z" fill="#F209EE"/>
<path d="M171.633 13.6855C172.662 14.4451 172.789 15.9816 171.917 17.1107C171.045 18.2398 169.508 18.5406 168.478 17.777C167.449 17.0174 167.321 15.4808 168.194 14.3517C169.066 13.2226 170.603 12.9219 171.633 13.6855Z" fill="white"/>
<path d="M171.594 2.97363C173.012 1.83027 174.812 1.76642 176.338 2.40918C179.14 3.58993 181.108 7.10405 179.507 11.3379C182.174 11.7479 184.081 12.861 185.236 14.377C186.584 16.1453 186.806 18.3317 186.149 20.1914C185.492 22.0536 183.943 23.6116 181.755 24.1094C180.167 24.4706 178.333 24.2526 176.353 23.3154C176.53 25.0842 176.057 26.9051 175.186 28.4492C173.857 30.8021 171.484 32.7347 168.645 32.9961L168.591 33.001L168.538 33C165.482 32.9544 163.582 30.9706 162.92 28.5908C162.542 27.2326 162.555 25.7149 162.969 24.292C161.232 24.8026 159.652 24.6806 158.31 24.0605C156.32 23.1412 155.076 21.227 154.662 19.2529C154.249 17.283 154.629 15.0643 156.146 13.5459C157.209 12.4805 158.719 11.8696 160.636 11.8574C159.732 10.5742 159.313 9.25894 159.321 7.99707C159.335 6.0399 160.378 4.39469 161.852 3.44922C163.327 2.50233 165.266 2.23664 167.085 3.05664C168.138 3.53145 169.097 4.34541 169.891 5.5166C170.27 4.4268 170.848 3.57482 171.594 2.97363Z" stroke="#F5F5F5" stroke-width="2"/>
</svg>
